<svg xmlns="http://www.w3.org/2000/svg" xmlns:xlink="http://www.w3.org/1999/xlink" width="650" zoomAndPan="magnify" viewBox="0 0 487.5 149.999998" height="200" preserveAspectRatio="xMidYMid meet" version="1.2"><defs/><g id="83e2da3c25"><path style=" stroke:none;fill-rule:nonzero;fill:#ff3131;fill-opacity:1;" d="M 471.671875 115.808594 C 469.792969 117.574219 467.765625 119.144531 465.589844 120.523438 C 463.414062 121.898438 461.125 123.0625 458.726562 124.003906 C 456.332031 124.949219 453.867188 125.660156 451.335938 126.136719 C 448.800781 126.613281 446.25 126.847656 443.671875 126.835938 C 440.171875 126.875 436.742188 126.398438 433.386719 125.410156 C 430.027344 124.421875 426.886719 122.964844 423.96875 121.035156 C 420.832031 118.890625 418.074219 116.34375 415.691406 113.386719 C 413.308594 110.433594 411.398438 107.195312 409.96875 103.679688 C 408.183594 98.972656 407.132812 94.105469 406.804688 89.082031 C 406.476562 84.054688 406.894531 79.09375 408.050781 74.195312 C 408.96875 70.375 410.304688 66.710938 412.0625 63.195312 C 413.820312 59.683594 415.949219 56.414062 418.453125 53.386719 C 418.695312 53.109375 418.96875 52.875 419.28125 52.679688 C 419.59375 52.488281 419.929688 52.347656 420.285156 52.257812 C 420.640625 52.167969 421.003906 52.132812 421.367188 52.152344 C 421.734375 52.175781 422.089844 52.25 422.433594 52.378906 C 422.773438 52.507812 423.089844 52.683594 423.378906 52.910156 C 423.667969 53.132812 423.917969 53.394531 424.125 53.695312 C 424.335938 53.992188 424.496094 54.316406 424.609375 54.664062 C 424.71875 55.011719 424.777344 55.371094 424.78125 55.734375 C 424.78125 55.925781 425.117188 76.113281 435.570312 76.113281 C 436.625 76.15625 437.632812 75.964844 438.601562 75.546875 C 439.566406 75.125 440.394531 74.515625 441.082031 73.714844 C 443.433594 70.644531 443.671875 64.558594 441.660156 56.597656 C 436.625 36.367188 446.882812 25.003906 447.316406 24.523438 C 447.789062 24.023438 448.355469 23.679688 449.019531 23.5 C 449.683594 23.316406 450.347656 23.324219 451.007812 23.515625 C 451.664062 23.71875 452.21875 24.078125 452.667969 24.597656 C 453.117188 25.117188 453.394531 25.714844 453.5 26.394531 C 453.847656 29.058594 454.4375 31.664062 455.269531 34.21875 C 456.101562 36.773438 457.160156 39.230469 458.449219 41.585938 C 459.734375 43.945312 461.230469 46.164062 462.929688 48.242188 C 464.628906 50.324219 466.503906 52.230469 468.554688 53.960938 C 469.515625 54.921875 470.472656 55.832031 471.382812 56.839844 C 473.828125 59.183594 475.960938 61.789062 477.777344 64.652344 C 479.59375 67.511719 481.042969 70.550781 482.125 73.761719 C 482.710938 75.574219 483.171875 77.417969 483.5 79.296875 C 483.832031 81.171875 484.03125 83.0625 484.097656 84.96875 C 484.164062 86.871094 484.097656 88.769531 483.898438 90.664062 C 483.699219 92.558594 483.371094 94.433594 482.914062 96.28125 C 482.453125 98.128906 481.867188 99.9375 481.15625 101.707031 C 480.441406 103.472656 479.613281 105.183594 478.660156 106.832031 C 477.710938 108.484375 476.648438 110.0625 475.480469 111.566406 C 474.308594 113.070312 473.039062 114.484375 471.671875 115.808594 Z M 471.671875 115.808594 "/><path style=" stroke:none;fill-rule:nonzero;fill:#ff5757;fill-opacity:1;" d="M 471.382812 56.839844 C 470.910156 58.5 470.371094 60.136719 469.765625 61.753906 C 469.160156 63.367188 468.492188 64.957031 467.757812 66.519531 C 467.027344 68.082031 466.234375 69.613281 465.378906 71.113281 C 464.523438 72.613281 463.609375 74.074219 462.636719 75.5 C 461.664062 76.925781 460.636719 78.3125 459.550781 79.65625 C 458.46875 80.996094 457.332031 82.296875 456.144531 83.546875 C 454.957031 84.800781 453.722656 86.003906 452.4375 87.15625 C 451.152344 88.308594 449.824219 89.410156 448.453125 90.457031 C 447.082031 91.503906 445.667969 92.492188 444.214844 93.425781 C 442.765625 94.359375 441.277344 95.234375 439.757812 96.046875 C 438.234375 96.863281 436.683594 97.613281 435.101562 98.304688 C 433.519531 98.992188 431.910156 99.617188 430.277344 100.179688 C 428.648438 100.738281 426.996094 101.234375 425.324219 101.664062 C 423.652344 102.089844 421.964844 102.453125 420.265625 102.746094 C 418.5625 103.039062 416.851562 103.261719 415.132812 103.417969 C 413.414062 103.574219 411.691406 103.660156 409.96875 103.679688 C 408.183594 98.972656 407.132812 94.105469 406.804688 89.082031 C 406.476562 84.054688 406.894531 79.09375 408.050781 74.195312 C 408.96875 70.375 410.304688 66.710938 412.0625 63.195312 C 413.820312 59.683594 415.949219 56.414062 418.453125 53.386719 C 418.695312 53.109375 418.96875 52.875 419.28125 52.679688 C 419.59375 52.488281 419.929688 52.347656 420.285156 52.257812 C 420.640625 52.167969 421.003906 52.132812 421.367188 52.152344 C 421.734375 52.175781 422.089844 52.25 422.433594 52.378906 C 422.773438 52.507812 423.089844 52.683594 423.378906 52.910156 C 423.667969 53.132812 423.917969 53.394531 424.125 53.695312 C 424.335938 53.992188 424.496094 54.316406 424.609375 54.664062 C 424.71875 55.011719 424.777344 55.371094 424.78125 55.734375 C 424.78125 55.925781 425.117188 76.113281 435.570312 76.113281 C 436.625 76.15625 437.632812 75.964844 438.601562 75.546875 C 439.566406 75.125 440.394531 74.515625 441.082031 73.714844 C 443.433594 70.644531 443.671875 64.558594 441.660156 56.597656 C 436.625 36.367188 446.882812 25.003906 447.316406 24.523438 C 447.789062 24.023438 448.355469 23.679688 449.019531 23.5 C 449.683594 23.316406 450.347656 23.324219 451.007812 23.515625 C 451.664062 23.71875 452.21875 24.078125 452.667969 24.597656 C 453.117188 25.117188 453.394531 25.714844 453.5 26.394531 C 453.847656 29.058594 454.4375 31.664062 455.269531 34.21875 C 456.101562 36.773438 457.160156 39.230469 458.449219 41.585938 C 459.734375 43.945312 461.230469 46.164062 462.929688 48.242188 C 464.628906 50.324219 466.503906 52.230469 468.554688 53.960938 C 469.515625 54.921875 470.472656 55.832031 471.382812 56.839844 Z M 471.382812 56.839844 "/><g style="fill:#000000;fill-opacity:0.4;"><g transform="translate(18.843058, 107.103346)"><path style="stroke:none" d="M 17.078125 -36.90625 C 20.972656 -36.90625 24.375 -36.128906 27.28125 -34.578125 C 30.1875 -33.035156 32.4375 -30.875 34.03125 -28.09375 C 35.625 -25.3125 36.421875 -22.097656 36.421875 -18.453125 C 36.421875 -14.835938 35.625 -11.628906 34.03125 -8.828125 C 32.4375 -6.023438 30.175781 -3.851562 27.25 -2.3125 C 24.320312 -0.769531 20.929688 0 17.078125 0 L 3.265625 0 L 3.265625 -36.90625 Z M 16.5 -7.78125 C 19.90625 -7.78125 22.550781 -8.707031 24.4375 -10.5625 C 26.332031 -12.414062 27.28125 -15.046875 27.28125 -18.453125 C 27.28125 -21.847656 26.332031 -24.488281 24.4375 -26.375 C 22.550781 -28.269531 19.90625 -29.21875 16.5 -29.21875 L 12.25 -29.21875 L 12.25 -7.78125 Z M 16.5 -7.78125 "/></g></g><g style="fill:#000000;fill-opacity:0.4;"><g transform="translate(57.053254, 107.103346)"><path style="stroke:none" d="M 7.78125 -32.375 C 6.195312 -32.375 4.90625 -32.835938 3.90625 -33.765625 C 2.914062 -34.703125 2.421875 -35.851562 2.421875 -37.21875 C 2.421875 -38.613281 2.914062 -39.773438 3.90625 -40.703125 C 4.90625 -41.640625 6.195312 -42.109375 7.78125 -42.109375 C 9.320312 -42.109375 10.59375 -41.640625 11.59375 -40.703125 C 12.59375 -39.773438 13.09375 -38.613281 13.09375 -37.21875 C 13.09375 -35.851562 12.59375 -34.703125 11.59375 -33.765625 C 10.59375 -32.835938 9.320312 -32.375 7.78125 -32.375 Z M 12.25 -29.328125 L 12.25 0 L 3.265625 0 L 3.265625 -29.328125 Z M 12.25 -29.328125 "/></g></g><g style="fill:#000000;fill-opacity:0.4;"><g transform="translate(72.558078, 107.103346)"><path style="stroke:none" d="M 15.1875 0.421875 C 12.632812 0.421875 10.359375 -0.015625 8.359375 -0.890625 C 6.359375 -1.765625 4.78125 -2.960938 3.625 -4.484375 C 2.46875 -6.015625 1.820312 -7.726562 1.6875 -9.625 L 10.5625 -9.625 C 10.664062 -8.601562 11.140625 -7.773438 11.984375 -7.140625 C 12.828125 -6.515625 13.859375 -6.203125 15.078125 -6.203125 C 16.203125 -6.203125 17.070312 -6.421875 17.6875 -6.859375 C 18.300781 -7.296875 18.609375 -7.863281 18.609375 -8.5625 C 18.609375 -9.40625 18.171875 -10.023438 17.296875 -10.421875 C 16.421875 -10.828125 15 -11.28125 13.03125 -11.78125 C 10.925781 -12.269531 9.171875 -12.785156 7.765625 -13.328125 C 6.367188 -13.867188 5.160156 -14.722656 4.140625 -15.890625 C 3.128906 -17.066406 2.625 -18.65625 2.625 -20.65625 C 2.625 -22.34375 3.085938 -23.875 4.015625 -25.25 C 4.941406 -26.632812 6.304688 -27.726562 8.109375 -28.53125 C 9.921875 -29.34375 12.070312 -29.75 14.5625 -29.75 C 18.238281 -29.75 21.132812 -28.835938 23.25 -27.015625 C 25.375 -25.191406 26.59375 -22.773438 26.90625 -19.765625 L 18.609375 -19.765625 C 18.460938 -20.773438 18.015625 -21.578125 17.265625 -22.171875 C 16.515625 -22.773438 15.523438 -23.078125 14.296875 -23.078125 C 13.242188 -23.078125 12.4375 -22.875 11.875 -22.46875 C 11.3125 -22.0625 11.03125 -21.507812 11.03125 -20.8125 C 11.03125 -19.96875 11.476562 -19.335938 12.375 -18.921875 C 13.269531 -18.503906 14.664062 -18.082031 16.5625 -17.65625 C 18.726562 -17.09375 20.492188 -16.539062 21.859375 -16 C 23.234375 -15.457031 24.4375 -14.582031 25.46875 -13.375 C 26.5 -12.164062 27.03125 -10.546875 27.0625 -8.515625 C 27.0625 -6.796875 26.578125 -5.257812 25.609375 -3.90625 C 24.648438 -2.5625 23.269531 -1.503906 21.46875 -0.734375 C 19.664062 0.0351562 17.570312 0.421875 15.1875 0.421875 Z M 15.1875 0.421875 "/></g></g><g style="fill:#000000;fill-opacity:0.4;"><g transform="translate(101.88584, 107.103346)"><path style="stroke:none" d="M 1.46875 -14.671875 C 1.46875 -17.710938 2.085938 -20.375 3.328125 -22.65625 C 4.578125 -24.9375 6.3125 -26.6875 8.53125 -27.90625 C 10.757812 -29.132812 13.3125 -29.75 16.1875 -29.75 C 19.863281 -29.75 22.9375 -28.785156 25.40625 -26.859375 C 27.882812 -24.929688 29.507812 -22.21875 30.28125 -18.71875 L 20.703125 -18.71875 C 19.898438 -20.957031 18.34375 -22.078125 16.03125 -22.078125 C 14.382812 -22.078125 13.070312 -21.4375 12.09375 -20.15625 C 11.113281 -18.875 10.625 -17.046875 10.625 -14.671875 C 10.625 -12.285156 11.113281 -10.453125 12.09375 -9.171875 C 13.070312 -7.890625 14.382812 -7.25 16.03125 -7.25 C 18.34375 -7.25 19.898438 -8.375 20.703125 -10.625 L 30.28125 -10.625 C 29.507812 -7.1875 27.878906 -4.484375 25.390625 -2.515625 C 22.898438 -0.554688 19.832031 0.421875 16.1875 0.421875 C 13.3125 0.421875 10.757812 -0.191406 8.53125 -1.421875 C 6.3125 -2.648438 4.578125 -4.398438 3.328125 -6.671875 C 2.085938 -8.953125 1.46875 -11.617188 1.46875 -14.671875 Z M 1.46875 -14.671875 "/></g></g><g style="fill:#000000;fill-opacity:0.4;"><g transform="translate(133.683869, 107.103346)"><path style="stroke:none" d="M 12.25 -24.4375 C 13.300781 -26.050781 14.613281 -27.320312 16.1875 -28.25 C 17.757812 -29.175781 19.515625 -29.640625 21.453125 -29.640625 L 21.453125 -20.125 L 18.96875 -20.125 C 16.726562 -20.125 15.046875 -19.640625 13.921875 -18.671875 C 12.804688 -17.710938 12.25 -16.023438 12.25 -13.609375 L 12.25 0 L 3.265625 0 L 3.265625 -29.328125 L 12.25 -29.328125 Z M 12.25 -24.4375 "/></g></g><g style="fill:#000000;fill-opacity:0.4;"><g transform="translate(156.179003, 107.103346)"><path style="stroke:none" d="M 30.90625 -15.140625 C 30.90625 -14.296875 30.851562 -13.421875 30.75 -12.515625 L 10.40625 -12.515625 C 10.550781 -10.691406 11.140625 -9.296875 12.171875 -8.328125 C 13.203125 -7.367188 14.472656 -6.890625 15.984375 -6.890625 C 18.222656 -6.890625 19.78125 -7.832031 20.65625 -9.71875 L 30.21875 -9.71875 C 29.726562 -7.789062 28.84375 -6.054688 27.5625 -4.515625 C 26.289062 -2.972656 24.691406 -1.765625 22.765625 -0.890625 C 20.835938 -0.015625 18.679688 0.421875 16.296875 0.421875 C 13.421875 0.421875 10.859375 -0.191406 8.609375 -1.421875 C 6.367188 -2.648438 4.617188 -4.398438 3.359375 -6.671875 C 2.097656 -8.953125 1.46875 -11.617188 1.46875 -14.671875 C 1.46875 -17.710938 2.085938 -20.375 3.328125 -22.65625 C 4.578125 -24.9375 6.320312 -26.6875 8.5625 -27.90625 C 10.8125 -29.132812 13.390625 -29.75 16.296875 -29.75 C 19.128906 -29.75 21.648438 -29.148438 23.859375 -27.953125 C 26.066406 -26.765625 27.789062 -25.066406 29.03125 -22.859375 C 30.28125 -20.648438 30.90625 -18.078125 30.90625 -15.140625 Z M 21.703125 -17.5 C 21.703125 -19.039062 21.175781 -20.265625 20.125 -21.171875 C 19.070312 -22.085938 17.757812 -22.546875 16.1875 -22.546875 C 14.675781 -22.546875 13.40625 -22.109375 12.375 -21.234375 C 11.34375 -20.359375 10.703125 -19.113281 10.453125 -17.5 Z M 21.703125 -17.5 "/></g></g><g style="fill:#000000;fill-opacity:0.4;"><g transform="translate(188.555173, 107.103346)"><path style="stroke:none" d="M 19.609375 -7.625 L 19.609375 0 L 15.03125 0 C 11.769531 0 9.226562 -0.796875 7.40625 -2.390625 C 5.582031 -3.984375 4.671875 -6.585938 4.671875 -10.203125 L 4.671875 -21.859375 L 1.109375 -21.859375 L 1.109375 -29.328125 L 4.671875 -29.328125 L 4.671875 -36.484375 L 13.671875 -36.484375 L 13.671875 -29.328125 L 19.546875 -29.328125 L 19.546875 -21.859375 L 13.671875 -21.859375 L 13.671875 -10.09375 C 13.671875 -9.21875 13.878906 -8.585938 14.296875 -8.203125 C 14.710938 -7.816406 15.414062 -7.625 16.40625 -7.625 Z M 19.609375 -7.625 "/></g></g><g style="fill:#000000;fill-opacity:0.4;"><g transform="translate(209.894008, 107.103346)"><path style="stroke:none" d="M 7.78125 -32.375 C 6.195312 -32.375 4.90625 -32.835938 3.90625 -33.765625 C 2.914062 -34.703125 2.421875 -35.851562 2.421875 -37.21875 C 2.421875 -38.613281 2.914062 -39.773438 3.90625 -40.703125 C 4.90625 -41.640625 6.195312 -42.109375 7.78125 -42.109375 C 9.320312 -42.109375 10.59375 -41.640625 11.59375 -40.703125 C 12.59375 -39.773438 13.09375 -38.613281 13.09375 -37.21875 C 13.09375 -35.851562 12.59375 -34.703125 11.59375 -33.765625 C 10.59375 -32.835938 9.320312 -32.375 7.78125 -32.375 Z M 12.25 -29.328125 L 12.25 0 L 3.265625 0 L 3.265625 -29.328125 Z M 12.25 -29.328125 "/></g></g><g style="fill:#000000;fill-opacity:0.4;"><g transform="translate(225.398833, 107.103346)"><path style="stroke:none" d="M 16.609375 0.421875 C 13.734375 0.421875 11.144531 -0.191406 8.84375 -1.421875 C 6.550781 -2.648438 4.75 -4.398438 3.4375 -6.671875 C 2.125 -8.953125 1.46875 -11.617188 1.46875 -14.671875 C 1.46875 -17.679688 2.132812 -20.332031 3.46875 -22.625 C 4.800781 -24.925781 6.625 -26.6875 8.9375 -27.90625 C 11.25 -29.132812 13.84375 -29.75 16.71875 -29.75 C 19.59375 -29.75 22.1875 -29.132812 24.5 -27.90625 C 26.8125 -26.6875 28.628906 -24.925781 29.953125 -22.625 C 31.285156 -20.332031 31.953125 -17.679688 31.953125 -14.671875 C 31.953125 -11.648438 31.273438 -8.992188 29.921875 -6.703125 C 28.578125 -4.410156 26.738281 -2.648438 24.40625 -1.421875 C 22.082031 -0.191406 19.484375 0.421875 16.609375 0.421875 Z M 16.609375 -7.359375 C 18.328125 -7.359375 19.789062 -7.988281 21 -9.25 C 22.207031 -10.507812 22.8125 -12.316406 22.8125 -14.671875 C 22.8125 -17.015625 22.222656 -18.816406 21.046875 -20.078125 C 19.878906 -21.335938 18.4375 -21.96875 16.71875 -21.96875 C 14.96875 -21.96875 13.515625 -21.34375 12.359375 -20.09375 C 11.203125 -18.851562 10.625 -17.046875 10.625 -14.671875 C 10.625 -12.316406 11.191406 -10.507812 12.328125 -9.25 C 13.460938 -7.988281 14.890625 -7.359375 16.609375 -7.359375 Z M 16.609375 -7.359375 "/></g></g><g style="fill:#000000;fill-opacity:0.4;"><g transform="translate(258.878718, 107.103346)"><path style="stroke:none" d="M 21.125 -29.640625 C 24.5625 -29.640625 27.304688 -28.523438 29.359375 -26.296875 C 31.410156 -24.078125 32.4375 -21.023438 32.4375 -17.140625 L 32.4375 0 L 23.5 0 L 23.5 -15.921875 C 23.5 -17.890625 22.988281 -19.414062 21.96875 -20.5 C 20.957031 -21.582031 19.59375 -22.125 17.875 -22.125 C 16.15625 -22.125 14.785156 -21.582031 13.765625 -20.5 C 12.753906 -19.414062 12.25 -17.890625 12.25 -15.921875 L 12.25 0 L 3.265625 0 L 3.265625 -29.328125 L 12.25 -29.328125 L 12.25 -25.4375 C 13.15625 -26.738281 14.378906 -27.765625 15.921875 -28.515625 C 17.460938 -29.265625 19.195312 -29.640625 21.125 -29.640625 Z M 21.125 -29.640625 "/></g></g><g style="fill:#000000;fill-opacity:1;"><g transform="translate(16.519732, 104.780018)"><path style="stroke:none" d="M 17.078125 -36.90625 C 20.972656 -36.90625 24.375 -36.128906 27.28125 -34.578125 C 30.1875 -33.035156 32.4375 -30.875 34.03125 -28.09375 C 35.625 -25.3125 36.421875 -22.097656 36.421875 -18.453125 C 36.421875 -14.835938 35.625 -11.628906 34.03125 -8.828125 C 32.4375 -6.023438 30.175781 -3.851562 27.25 -2.3125 C 24.320312 -0.769531 20.929688 0 17.078125 0 L 3.265625 0 L 3.265625 -36.90625 Z M 16.5 -7.78125 C 19.90625 -7.78125 22.550781 -8.707031 24.4375 -10.5625 C 26.332031 -12.414062 27.28125 -15.046875 27.28125 -18.453125 C 27.28125 -21.847656 26.332031 -24.488281 24.4375 -26.375 C 22.550781 -28.269531 19.90625 -29.21875 16.5 -29.21875 L 12.25 -29.21875 L 12.25 -7.78125 Z M 16.5 -7.78125 "/></g></g><g style="fill:#000000;fill-opacity:1;"><g transform="translate(54.729928, 104.780018)"><path style="stroke:none" d="M 7.78125 -32.375 C 6.195312 -32.375 4.90625 -32.835938 3.90625 -33.765625 C 2.914062 -34.703125 2.421875 -35.851562 2.421875 -37.21875 C 2.421875 -38.613281 2.914062 -39.773438 3.90625 -40.703125 C 4.90625 -41.640625 6.195312 -42.109375 7.78125 -42.109375 C 9.320312 -42.109375 10.59375 -41.640625 11.59375 -40.703125 C 12.59375 -39.773438 13.09375 -38.613281 13.09375 -37.21875 C 13.09375 -35.851562 12.59375 -34.703125 11.59375 -33.765625 C 10.59375 -32.835938 9.320312 -32.375 7.78125 -32.375 Z M 12.25 -29.328125 L 12.25 0 L 3.265625 0 L 3.265625 -29.328125 Z M 12.25 -29.328125 "/></g></g><g style="fill:#000000;fill-opacity:1;"><g transform="translate(70.234752, 104.780018)"><path style="stroke:none" d="M 15.1875 0.421875 C 12.632812 0.421875 10.359375 -0.015625 8.359375 -0.890625 C 6.359375 -1.765625 4.78125 -2.960938 3.625 -4.484375 C 2.46875 -6.015625 1.820312 -7.726562 1.6875 -9.625 L 10.5625 -9.625 C 10.664062 -8.601562 11.140625 -7.773438 11.984375 -7.140625 C 12.828125 -6.515625 13.859375 -6.203125 15.078125 -6.203125 C 16.203125 -6.203125 17.070312 -6.421875 17.6875 -6.859375 C 18.300781 -7.296875 18.609375 -7.863281 18.609375 -8.5625 C 18.609375 -9.40625 18.171875 -10.023438 17.296875 -10.421875 C 16.421875 -10.828125 15 -11.28125 13.03125 -11.78125 C 10.925781 -12.269531 9.171875 -12.785156 7.765625 -13.328125 C 6.367188 -13.867188 5.160156 -14.722656 4.140625 -15.890625 C 3.128906 -17.066406 2.625 -18.65625 2.625 -20.65625 C 2.625 -22.34375 3.085938 -23.875 4.015625 -25.25 C 4.941406 -26.632812 6.304688 -27.726562 8.109375 -28.53125 C 9.921875 -29.34375 12.070312 -29.75 14.5625 -29.75 C 18.238281 -29.75 21.132812 -28.835938 23.25 -27.015625 C 25.375 -25.191406 26.59375 -22.773438 26.90625 -19.765625 L 18.609375 -19.765625 C 18.460938 -20.773438 18.015625 -21.578125 17.265625 -22.171875 C 16.515625 -22.773438 15.523438 -23.078125 14.296875 -23.078125 C 13.242188 -23.078125 12.4375 -22.875 11.875 -22.46875 C 11.3125 -22.0625 11.03125 -21.507812 11.03125 -20.8125 C 11.03125 -19.96875 11.476562 -19.335938 12.375 -18.921875 C 13.269531 -18.503906 14.664062 -18.082031 16.5625 -17.65625 C 18.726562 -17.09375 20.492188 -16.539062 21.859375 -16 C 23.234375 -15.457031 24.4375 -14.582031 25.46875 -13.375 C 26.5 -12.164062 27.03125 -10.546875 27.0625 -8.515625 C 27.0625 -6.796875 26.578125 -5.257812 25.609375 -3.90625 C 24.648438 -2.5625 23.269531 -1.503906 21.46875 -0.734375 C 19.664062 0.0351562 17.570312 0.421875 15.1875 0.421875 Z M 15.1875 0.421875 "/></g></g><g style="fill:#000000;fill-opacity:1;"><g transform="translate(99.562514, 104.780018)"><path style="stroke:none" d="M 1.46875 -14.671875 C 1.46875 -17.710938 2.085938 -20.375 3.328125 -22.65625 C 4.578125 -24.9375 6.3125 -26.6875 8.53125 -27.90625 C 10.757812 -29.132812 13.3125 -29.75 16.1875 -29.75 C 19.863281 -29.75 22.9375 -28.785156 25.40625 -26.859375 C 27.882812 -24.929688 29.507812 -22.21875 30.28125 -18.71875 L 20.703125 -18.71875 C 19.898438 -20.957031 18.34375 -22.078125 16.03125 -22.078125 C 14.382812 -22.078125 13.070312 -21.4375 12.09375 -20.15625 C 11.113281 -18.875 10.625 -17.046875 10.625 -14.671875 C 10.625 -12.285156 11.113281 -10.453125 12.09375 -9.171875 C 13.070312 -7.890625 14.382812 -7.25 16.03125 -7.25 C 18.34375 -7.25 19.898438 -8.375 20.703125 -10.625 L 30.28125 -10.625 C 29.507812 -7.1875 27.878906 -4.484375 25.390625 -2.515625 C 22.898438 -0.554688 19.832031 0.421875 16.1875 0.421875 C 13.3125 0.421875 10.757812 -0.191406 8.53125 -1.421875 C 6.3125 -2.648438 4.578125 -4.398438 3.328125 -6.671875 C 2.085938 -8.953125 1.46875 -11.617188 1.46875 -14.671875 Z M 1.46875 -14.671875 "/></g></g><g style="fill:#000000;fill-opacity:1;"><g transform="translate(131.360543, 104.780018)"><path style="stroke:none" d="M 12.25 -24.4375 C 13.300781 -26.050781 14.613281 -27.320312 16.1875 -28.25 C 17.757812 -29.175781 19.515625 -29.640625 21.453125 -29.640625 L 21.453125 -20.125 L 18.96875 -20.125 C 16.726562 -20.125 15.046875 -19.640625 13.921875 -18.671875 C 12.804688 -17.710938 12.25 -16.023438 12.25 -13.609375 L 12.25 0 L 3.265625 0 L 3.265625 -29.328125 L 12.25 -29.328125 Z M 12.25 -24.4375 "/></g></g><g style="fill:#000000;fill-opacity:1;"><g transform="translate(153.855676, 104.780018)"><path style="stroke:none" d="M 30.90625 -15.140625 C 30.90625 -14.296875 30.851562 -13.421875 30.75 -12.515625 L 10.40625 -12.515625 C 10.550781 -10.691406 11.140625 -9.296875 12.171875 -8.328125 C 13.203125 -7.367188 14.472656 -6.890625 15.984375 -6.890625 C 18.222656 -6.890625 19.78125 -7.832031 20.65625 -9.71875 L 30.21875 -9.71875 C 29.726562 -7.789062 28.84375 -6.054688 27.5625 -4.515625 C 26.289062 -2.972656 24.691406 -1.765625 22.765625 -0.890625 C 20.835938 -0.015625 18.679688 0.421875 16.296875 0.421875 C 13.421875 0.421875 10.859375 -0.191406 8.609375 -1.421875 C 6.367188 -2.648438 4.617188 -4.398438 3.359375 -6.671875 C 2.097656 -8.953125 1.46875 -11.617188 1.46875 -14.671875 C 1.46875 -17.710938 2.085938 -20.375 3.328125 -22.65625 C 4.578125 -24.9375 6.320312 -26.6875 8.5625 -27.90625 C 10.8125 -29.132812 13.390625 -29.75 16.296875 -29.75 C 19.128906 -29.75 21.648438 -29.148438 23.859375 -27.953125 C 26.066406 -26.765625 27.789062 -25.066406 29.03125 -22.859375 C 30.28125 -20.648438 30.90625 -18.078125 30.90625 -15.140625 Z M 21.703125 -17.5 C 21.703125 -19.039062 21.175781 -20.265625 20.125 -21.171875 C 19.070312 -22.085938 17.757812 -22.546875 16.1875 -22.546875 C 14.675781 -22.546875 13.40625 -22.109375 12.375 -21.234375 C 11.34375 -20.359375 10.703125 -19.113281 10.453125 -17.5 Z M 21.703125 -17.5 "/></g></g><g style="fill:#000000;fill-opacity:1;"><g transform="translate(186.231847, 104.780018)"><path style="stroke:none" d="M 19.609375 -7.625 L 19.609375 0 L 15.03125 0 C 11.769531 0 9.226562 -0.796875 7.40625 -2.390625 C 5.582031 -3.984375 4.671875 -6.585938 4.671875 -10.203125 L 4.671875 -21.859375 L 1.109375 -21.859375 L 1.109375 -29.328125 L 4.671875 -29.328125 L 4.671875 -36.484375 L 13.671875 -36.484375 L 13.671875 -29.328125 L 19.546875 -29.328125 L 19.546875 -21.859375 L 13.671875 -21.859375 L 13.671875 -10.09375 C 13.671875 -9.21875 13.878906 -8.585938 14.296875 -8.203125 C 14.710938 -7.816406 15.414062 -7.625 16.40625 -7.625 Z M 19.609375 -7.625 "/></g></g><g style="fill:#000000;fill-opacity:1;"><g transform="translate(207.570682, 104.780018)"><path style="stroke:none" d="M 7.78125 -32.375 C 6.195312 -32.375 4.90625 -32.835938 3.90625 -33.765625 C 2.914062 -34.703125 2.421875 -35.851562 2.421875 -37.21875 C 2.421875 -38.613281 2.914062 -39.773438 3.90625 -40.703125 C 4.90625 -41.640625 6.195312 -42.109375 7.78125 -42.109375 C 9.320312 -42.109375 10.59375 -41.640625 11.59375 -40.703125 C 12.59375 -39.773438 13.09375 -38.613281 13.09375 -37.21875 C 13.09375 -35.851562 12.59375 -34.703125 11.59375 -33.765625 C 10.59375 -32.835938 9.320312 -32.375 7.78125 -32.375 Z M 12.25 -29.328125 L 12.25 0 L 3.265625 0 L 3.265625 -29.328125 Z M 12.25 -29.328125 "/></g></g><g style="fill:#000000;fill-opacity:1;"><g transform="translate(223.075506, 104.780018)"><path style="stroke:none" d="M 16.609375 0.421875 C 13.734375 0.421875 11.144531 -0.191406 8.84375 -1.421875 C 6.550781 -2.648438 4.75 -4.398438 3.4375 -6.671875 C 2.125 -8.953125 1.46875 -11.617188 1.46875 -14.671875 C 1.46875 -17.679688 2.132812 -20.332031 3.46875 -22.625 C 4.800781 -24.925781 6.625 -26.6875 8.9375 -27.90625 C 11.25 -29.132812 13.84375 -29.75 16.71875 -29.75 C 19.59375 -29.75 22.1875 -29.132812 24.5 -27.90625 C 26.8125 -26.6875 28.628906 -24.925781 29.953125 -22.625 C 31.285156 -20.332031 31.953125 -17.679688 31.953125 -14.671875 C 31.953125 -11.648438 31.273438 -8.992188 29.921875 -6.703125 C 28.578125 -4.410156 26.738281 -2.648438 24.40625 -1.421875 C 22.082031 -0.191406 19.484375 0.421875 16.609375 0.421875 Z M 16.609375 -7.359375 C 18.328125 -7.359375 19.789062 -7.988281 21 -9.25 C 22.207031 -10.507812 22.8125 -12.316406 22.8125 -14.671875 C 22.8125 -17.015625 22.222656 -18.816406 21.046875 -20.078125 C 19.878906 -21.335938 18.4375 -21.96875 16.71875 -21.96875 C 14.96875 -21.96875 13.515625 -21.34375 12.359375 -20.09375 C 11.203125 -18.851562 10.625 -17.046875 10.625 -14.671875 C 10.625 -12.316406 11.191406 -10.507812 12.328125 -9.25 C 13.460938 -7.988281 14.890625 -7.359375 16.609375 -7.359375 Z M 16.609375 -7.359375 "/></g></g><g style="fill:#000000;fill-opacity:1;"><g transform="translate(256.555392, 104.780018)"><path style="stroke:none" d="M 21.125 -29.640625 C 24.5625 -29.640625 27.304688 -28.523438 29.359375 -26.296875 C 31.410156 -24.078125 32.4375 -21.023438 32.4375 -17.140625 L 32.4375 0 L 23.5 0 L 23.5 -15.921875 C 23.5 -17.890625 22.988281 -19.414062 21.96875 -20.5 C 20.957031 -21.582031 19.59375 -22.125 17.875 -22.125 C 16.15625 -22.125 14.785156 -21.582031 13.765625 -20.5 C 12.753906 -19.414062 12.25 -17.890625 12.25 -15.921875 L 12.25 0 L 3.265625 0 L 3.265625 -29.328125 L 12.25 -29.328125 L 12.25 -25.4375 C 13.15625 -26.738281 14.378906 -27.765625 15.921875 -28.515625 C 17.460938 -29.265625 19.195312 -29.640625 21.125 -29.640625 Z M 21.125 -29.640625 "/></g></g><g style="fill:#000000;fill-opacity:0.4;"><g transform="translate(294.308491, 107.103346)"><path style="stroke:none" d="M 2.046875 -7.203125 C 3.242188 -8.148438 3.785156 -8.585938 3.671875 -8.515625 C 7.109375 -11.347656 9.816406 -13.675781 11.796875 -15.5 C 13.773438 -17.320312 15.445312 -19.234375 16.8125 -21.234375 C 18.1875 -23.234375 18.875 -25.175781 18.875 -27.0625 C 18.875 -28.5 18.539062 -29.617188 17.875 -30.421875 C 17.207031 -31.234375 16.207031 -31.640625 14.875 -31.640625 C 13.539062 -31.640625 12.5 -31.140625 11.75 -30.140625 C 11 -29.140625 10.625 -27.726562 10.625 -25.90625 L 1.9375 -25.90625 C 2.007812 -28.882812 2.648438 -31.375 3.859375 -33.375 C 5.066406 -35.375 6.660156 -36.847656 8.640625 -37.796875 C 10.617188 -38.742188 12.820312 -39.21875 15.25 -39.21875 C 19.414062 -39.21875 22.554688 -38.144531 24.671875 -36 C 26.796875 -33.863281 27.859375 -31.078125 27.859375 -27.640625 C 27.859375 -23.898438 26.578125 -20.425781 24.015625 -17.21875 C 21.460938 -14.007812 18.207031 -10.878906 14.25 -7.828125 L 28.4375 -7.828125 L 28.4375 -0.53125 L 2.046875 -0.53125 Z M 2.046875 -7.203125 "/></g></g><g style="fill:#00bf63;fill-opacity:1;"><g transform="translate(291.985165, 104.780018)"><path style="stroke:none" d="M 2.046875 -7.203125 C 3.242188 -8.148438 3.785156 -8.585938 3.671875 -8.515625 C 7.109375 -11.347656 9.816406 -13.675781 11.796875 -15.5 C 13.773438 -17.320312 15.445312 -19.234375 16.8125 -21.234375 C 18.1875 -23.234375 18.875 -25.175781 18.875 -27.0625 C 18.875 -28.5 18.539062 -29.617188 17.875 -30.421875 C 17.207031 -31.234375 16.207031 -31.640625 14.875 -31.640625 C 13.539062 -31.640625 12.5 -31.140625 11.75 -30.140625 C 11 -29.140625 10.625 -27.726562 10.625 -25.90625 L 1.9375 -25.90625 C 2.007812 -28.882812 2.648438 -31.375 3.859375 -33.375 C 5.066406 -35.375 6.660156 -36.847656 8.640625 -37.796875 C 10.617188 -38.742188 12.820312 -39.21875 15.25 -39.21875 C 19.414062 -39.21875 22.554688 -38.144531 24.671875 -36 C 26.796875 -33.863281 27.859375 -31.078125 27.859375 -27.640625 C 27.859375 -23.898438 26.578125 -20.425781 24.015625 -17.21875 C 21.460938 -14.007812 18.207031 -10.878906 14.25 -7.828125 L 28.4375 -7.828125 L 28.4375 -0.53125 L 2.046875 -0.53125 Z M 2.046875 -7.203125 "/></g></g><g style="fill:#000000;fill-opacity:0.4;"><g transform="translate(324.333725, 107.103346)"><path style="stroke:none" d="M 2.578125 -6.828125 L 2.578125 -14.09375 L 19.1875 -37.84375 L 29.21875 -37.84375 L 29.21875 -14.609375 L 33.53125 -14.609375 L 33.53125 -6.828125 L 29.21875 -6.828125 L 29.21875 0 L 20.234375 0 L 20.234375 -6.828125 Z M 20.875 -27.96875 L 12.03125 -14.609375 L 20.875 -14.609375 Z M 20.875 -27.96875 "/></g></g><g style="fill:#ffde59;fill-opacity:1;"><g transform="translate(322.010399, 104.780018)"><path style="stroke:none" d="M 2.578125 -6.828125 L 2.578125 -14.09375 L 19.1875 -37.84375 L 29.21875 -37.84375 L 29.21875 -14.609375 L 33.53125 -14.609375 L 33.53125 -6.828125 L 29.21875 -6.828125 L 29.21875 0 L 20.234375 0 L 20.234375 -6.828125 Z M 20.875 -27.96875 L 12.03125 -14.609375 L 20.875 -14.609375 Z M 20.875 -27.96875 "/></g></g><g style="fill:#000000;fill-opacity:0.4;"><g transform="translate(359.919188, 107.103346)"><path style="stroke:none" d="M 1.421875 -30.015625 L 1.421875 -38.375 L 15.984375 -38.375 L 15.984375 0 L 6.625 0 L 6.625 -30.015625 Z M 1.421875 -30.015625 "/></g></g><g style="fill:#38b6ff;fill-opacity:1;"><g transform="translate(357.595861, 104.780018)"><path style="stroke:none" d="M 1.421875 -30.015625 L 1.421875 -38.375 L 15.984375 -38.375 L 15.984375 0 L 6.625 0 L 6.625 -30.015625 Z M 1.421875 -30.015625 "/></g></g></g></svg>