<svg xmlns="http://www.w3.org/2000/svg" xmlns:xlink="http://www.w3.org/1999/xlink" width="500" zoomAndPan="magnify" viewBox="0 0 375 374.999991" height="500" preserveAspectRatio="xMidYMid meet" version="1.2"><g id="09282ba1ca"><path style=" stroke:none;fill-rule:nonzero;fill:#ff3131;fill-opacity:1;" d="M 272.828125 334.507812 C 269.550781 337.582031 266.136719 340.496094 262.582031 343.25 C 259.03125 346 255.355469 348.578125 251.558594 350.984375 C 247.761719 353.386719 243.859375 355.605469 239.851562 357.640625 C 235.84375 359.675781 231.75 361.515625 227.570312 363.164062 C 223.386719 364.808594 219.136719 366.253906 214.820312 367.5 C 210.5 368.742188 206.132812 369.78125 201.71875 370.613281 C 197.300781 371.441406 192.855469 372.0625 188.378906 372.472656 C 183.902344 372.882812 179.417969 373.078125 174.925781 373.0625 C 168.839844 373.128906 162.78125 372.746094 156.753906 371.910156 C 150.726562 371.074219 144.792969 369.796875 138.957031 368.078125 C 133.117188 366.359375 127.441406 364.21875 121.921875 361.65625 C 116.402344 359.089844 111.101562 356.132812 106.023438 352.78125 C 100.574219 349.050781 95.425781 344.945312 90.578125 340.464844 C 85.730469 335.984375 81.234375 331.171875 77.089844 326.035156 C 72.941406 320.894531 69.195312 315.484375 65.839844 309.796875 C 62.488281 304.109375 59.5625 298.207031 57.074219 292.09375 C 53.976562 283.90625 51.5 275.535156 49.644531 266.980469 C 47.792969 258.425781 46.582031 249.78125 46.011719 241.046875 C 45.445312 232.308594 45.527344 223.582031 46.253906 214.859375 C 46.984375 206.136719 48.355469 197.511719 50.367188 188.996094 C 51.96875 182.339844 53.941406 175.796875 56.289062 169.367188 C 58.636719 162.9375 61.339844 156.660156 64.402344 150.539062 C 67.460938 144.414062 70.859375 138.488281 74.597656 132.753906 C 78.332031 127.015625 82.382812 121.511719 86.746094 116.238281 C 87.164062 115.757812 87.613281 115.308594 88.101562 114.894531 C 88.585938 114.480469 89.101562 114.109375 89.644531 113.773438 C 90.1875 113.4375 90.753906 113.144531 91.339844 112.898438 C 91.929688 112.648438 92.53125 112.445312 93.148438 112.289062 C 93.769531 112.132812 94.394531 112.023438 95.03125 111.964844 C 95.664062 111.902344 96.300781 111.890625 96.9375 111.925781 C 97.574219 111.964844 98.203125 112.046875 98.828125 112.179688 C 99.453125 112.3125 100.0625 112.492188 100.660156 112.71875 C 101.855469 113.167969 102.957031 113.785156 103.96875 114.570312 C 104.976562 115.351562 105.847656 116.269531 106.582031 117.316406 C 107.3125 118.363281 107.875 119.496094 108.265625 120.710938 C 108.65625 121.925781 108.859375 123.175781 108.875 124.453125 C 108.875 125.125 110.046875 195.699219 146.59375 195.699219 C 148.414062 195.773438 150.214844 195.644531 152.003906 195.308594 C 153.792969 194.972656 155.523438 194.445312 157.191406 193.71875 C 158.863281 192.992188 160.429688 192.089844 161.894531 191.007812 C 163.359375 189.929688 164.6875 188.699219 165.871094 187.316406 C 174.085938 176.589844 174.925781 155.296875 167.882812 127.46875 C 150.28125 56.726562 186.15625 16.996094 187.664062 15.320312 C 188.472656 14.457031 189.382812 13.722656 190.394531 13.113281 C 191.40625 12.503906 192.484375 12.042969 193.621094 11.734375 C 194.761719 11.421875 195.921875 11.273438 197.101562 11.285156 C 198.285156 11.292969 199.441406 11.464844 200.574219 11.796875 C 201.699219 12.144531 202.753906 12.636719 203.738281 13.28125 C 204.726562 13.921875 205.605469 14.6875 206.375 15.578125 C 207.144531 16.464844 207.777344 17.445312 208.273438 18.511719 C 208.769531 19.578125 209.109375 20.695312 209.292969 21.855469 C 209.898438 26.503906 210.71875 31.109375 211.75 35.679688 C 212.785156 40.25 214.027344 44.765625 215.476562 49.21875 C 216.929688 53.675781 218.582031 58.054688 220.441406 62.355469 C 222.296875 66.65625 224.347656 70.867188 226.59375 74.976562 C 228.839844 79.089844 231.269531 83.089844 233.886719 86.976562 C 236.5 90.863281 239.292969 94.625 242.253906 98.253906 C 245.21875 101.882812 248.34375 105.367188 251.628906 108.707031 C 254.917969 112.046875 258.351562 115.226562 261.929688 118.25 C 265.285156 121.601562 268.636719 124.789062 271.820312 128.308594 C 276.082031 132.394531 280.082031 136.726562 283.820312 141.292969 C 287.558594 145.863281 291.011719 150.640625 294.175781 155.628906 C 297.335938 160.613281 300.191406 165.769531 302.734375 171.097656 C 305.273438 176.425781 307.488281 181.890625 309.371094 187.484375 C 310.398438 190.648438 311.316406 193.847656 312.117188 197.074219 C 312.921875 200.304688 313.613281 203.554688 314.191406 206.832031 C 314.765625 210.109375 315.230469 213.402344 315.578125 216.710938 C 315.925781 220.019531 316.15625 223.335938 316.273438 226.660156 C 316.390625 229.984375 316.390625 233.3125 316.273438 236.636719 C 316.160156 239.960938 315.929688 243.277344 315.582031 246.585938 C 315.234375 249.894531 314.773438 253.1875 314.199219 256.464844 C 313.625 259.742188 312.933594 262.996094 312.132812 266.222656 C 311.328125 269.453125 310.414062 272.648438 309.390625 275.816406 C 308.363281 278.980469 307.230469 282.105469 305.988281 285.191406 C 304.742188 288.277344 303.394531 291.316406 301.9375 294.308594 C 300.484375 297.300781 298.925781 300.238281 297.265625 303.121094 C 295.605469 306.003906 293.847656 308.828125 291.992188 311.585938 C 290.136719 314.347656 288.1875 317.042969 286.140625 319.667969 C 284.097656 322.292969 281.964844 324.84375 279.742188 327.320312 C 277.519531 329.796875 275.214844 332.191406 272.828125 334.507812 Z M 272.828125 334.507812 "/><path style=" stroke:none;fill-rule:nonzero;fill:#ff5757;fill-opacity:1;" d="M 271.820312 128.308594 C 270.992188 131.207031 270.109375 134.089844 269.164062 136.957031 C 268.222656 139.820312 267.222656 142.664062 266.164062 145.492188 C 265.105469 148.316406 263.992188 151.117188 262.824219 153.898438 C 261.652344 156.679688 260.429688 159.433594 259.148438 162.164062 C 257.867188 164.894531 256.535156 167.597656 255.144531 170.277344 C 253.757812 172.953125 252.316406 175.601562 250.820312 178.222656 C 249.324219 180.84375 247.777344 183.429688 246.179688 185.988281 C 244.582031 188.546875 242.933594 191.070312 241.234375 193.5625 C 239.535156 196.054688 237.785156 198.511719 235.988281 200.933594 C 234.1875 203.355469 232.34375 205.738281 230.449219 208.085938 C 228.554688 210.433594 226.617188 212.742188 224.628906 215.011719 C 222.644531 217.28125 220.613281 219.511719 218.535156 221.699219 C 216.460938 223.890625 214.34375 226.035156 212.179688 228.136719 C 210.019531 230.242188 207.816406 232.300781 205.574219 234.316406 C 203.328125 236.332031 201.042969 238.300781 198.722656 240.226562 C 196.398438 242.148438 194.039062 244.023438 191.640625 245.855469 C 189.242188 247.683594 186.808594 249.464844 184.339844 251.195312 C 181.867188 252.925781 179.363281 254.609375 176.828125 256.238281 C 174.292969 257.871094 171.722656 259.449219 169.121094 260.980469 C 166.523438 262.507812 163.890625 263.984375 161.234375 265.40625 C 158.574219 266.828125 155.886719 268.199219 153.171875 269.511719 C 150.457031 270.828125 147.71875 272.089844 144.953125 273.292969 C 142.1875 274.5 139.402344 275.648438 136.589844 276.742188 C 133.777344 277.835938 130.945312 278.871094 128.09375 279.851562 C 125.242188 280.832031 122.371094 281.753906 119.480469 282.621094 C 116.59375 283.484375 113.6875 284.292969 110.765625 285.039062 C 107.84375 285.789062 104.90625 286.480469 101.957031 287.109375 C 99.007812 287.742188 96.046875 288.3125 93.074219 288.824219 C 90.101562 289.335938 87.121094 289.789062 84.132812 290.183594 C 81.140625 290.574219 78.144531 290.910156 75.140625 291.179688 C 72.136719 291.453125 69.128906 291.667969 66.117188 291.816406 C 63.101562 291.96875 60.089844 292.0625 57.074219 292.09375 C 53.976562 283.90625 51.5 275.535156 49.644531 266.980469 C 47.792969 258.425781 46.582031 249.78125 46.011719 241.046875 C 45.445312 232.308594 45.527344 223.582031 46.253906 214.859375 C 46.984375 206.136719 48.355469 197.511719 50.367188 188.996094 C 51.96875 182.339844 53.941406 175.796875 56.289062 169.367188 C 58.636719 162.9375 61.339844 156.660156 64.402344 150.539062 C 67.460938 144.414062 70.859375 138.488281 74.597656 132.753906 C 78.332031 127.015625 82.382812 121.511719 86.746094 116.238281 C 87.164062 115.757812 87.613281 115.308594 88.101562 114.894531 C 88.585938 114.480469 89.101562 114.109375 89.644531 113.773438 C 90.1875 113.4375 90.753906 113.144531 91.339844 112.898438 C 91.929688 112.648438 92.53125 112.445312 93.148438 112.289062 C 93.769531 112.132812 94.394531 112.023438 95.03125 111.964844 C 95.664062 111.902344 96.300781 111.890625 96.9375 111.925781 C 97.574219 111.964844 98.203125 112.046875 98.828125 112.179688 C 99.453125 112.3125 100.0625 112.492188 100.660156 112.71875 C 101.855469 113.167969 102.957031 113.785156 103.96875 114.570312 C 104.976562 115.351562 105.847656 116.269531 106.582031 117.316406 C 107.3125 118.363281 107.875 119.496094 108.265625 120.710938 C 108.65625 121.925781 108.859375 123.175781 108.875 124.453125 C 108.875 125.125 110.046875 195.699219 146.59375 195.699219 C 148.414062 195.773438 150.214844 195.644531 152.003906 195.308594 C 153.792969 194.972656 155.523438 194.445312 157.191406 193.71875 C 158.863281 192.992188 160.429688 192.089844 161.894531 191.007812 C 163.359375 189.929688 164.6875 188.699219 165.871094 187.316406 C 174.085938 176.589844 174.925781 155.296875 167.882812 127.46875 C 150.28125 56.726562 186.15625 16.996094 187.664062 15.320312 C 188.472656 14.457031 189.382812 13.722656 190.394531 13.113281 C 191.40625 12.503906 192.484375 12.042969 193.621094 11.734375 C 194.761719 11.421875 195.921875 11.273438 197.101562 11.285156 C 198.285156 11.292969 199.441406 11.464844 200.574219 11.796875 C 201.699219 12.144531 202.753906 12.636719 203.738281 13.28125 C 204.726562 13.921875 205.605469 14.6875 206.375 15.578125 C 207.144531 16.464844 207.777344 17.445312 208.273438 18.511719 C 208.769531 19.578125 209.109375 20.695312 209.292969 21.855469 C 209.898438 26.503906 210.71875 31.109375 211.75 35.679688 C 212.785156 40.25 214.027344 44.765625 215.476562 49.21875 C 216.929688 53.675781 218.582031 58.054688 220.441406 62.355469 C 222.296875 66.65625 224.347656 70.867188 226.59375 74.976562 C 228.839844 79.089844 231.269531 83.089844 233.886719 86.976562 C 236.5 90.863281 239.292969 94.625 242.253906 98.253906 C 245.21875 101.882812 248.34375 105.367188 251.628906 108.707031 C 254.917969 112.046875 258.351562 115.226562 261.929688 118.25 C 265.285156 121.601562 268.636719 124.789062 271.820312 128.308594 Z M 271.820312 128.308594 "/></g></svg>